<svg xmlns="http://www.w3.org/2000/svg" xmlns:svg="http://www.w3.org/2000/svg" id="svg2" width="100" height="100" x="0" y="0" enable-background="new -.5 .722 100 94.445" version="1.1" viewBox="-0.5 0.722 100 100" xml:space="preserve"><metadata id="metadata14"/><circle style="fill:#005a9c;fill-opacity:1;stroke:#fff;stroke-width:3.05662465;stroke-linejoin:round;stroke-miterlimit:4;stroke-dasharray:none;stroke-opacity:1" id="path4142" cx="49.5" cy="50.722" r="48.472"/><g id="g4238" transform="matrix(0.9528676,0,0,0.9528676,4.4225336,0.60464699)"><g id="g4191" transform="matrix(1.2273403,0,0,1.2273403,-25.034499,7.6207791)"><g id="g4195" transform="translate(3.112753,-1.1319102)"><path style="fill:#fff;fill-opacity:1" id="path12116" d="m 37.292536,42.744731 0,0.0028 9.942578,0 -0.740342,3.306788 c -0.246792,1.135158 -1.283409,1.875473 -2.418567,1.776756 l -0.04935,0 c -0.148075,0 -0.296075,0.148164 -0.296075,0.296072 0,0.148158 0.09883,0.246889 0.197383,0.246889 l 0.04935,0 4.195167,0 0.987225,0 1.480692,0 0.937716,0 4.244517,0 0.04934,0 c 0.0988,-0.04936 0.197384,-0.148256 0.197384,-0.246889 0,-0.148075 -0.148084,-0.296072 -0.296075,-0.296072 l -0.04934,0 c -1.135158,0.04936 -2.1717,-0.690956 -2.418408,-1.776756 l -0.740509,-3.306788 12.654124,0 0,-0.0028 -27.926809,0 z M 30.700854,14.540666 c -0.592216,0 -1.036414,0.444114 -1.036414,1.036414 l 0,25.763951 c 0,0.592217 0.444198,1.036414 1.036414,1.036414 l 16.53426,0 -5.02e-4,0.0025 5.331086,0 -5.02e-4,-0.0025 16.534259,0 c 0.5923,0 1.036583,-0.444197 1.036583,-1.036414 l 0,-25.763951 c 0.0988,-0.5923 -0.345265,-1.036414 -0.937566,-1.036414 l -38.497643,0 z m 0.690998,1.628721 37.214345,0 0,24.381793 -0.04935,0 -37.164995,0 0,-24.381793 z m 18.515263,24.641591 a 0.62948902,0.62948902 0 0 1 0.629562,0.629397 0.62948902,0.62948902 0 0 1 -0.629562,0.629561 0.62948902,0.62948902 0 0 1 -0.629402,-0.629561 0.62948902,0.62948902 0 0 1 0.629402,-0.629397 z"/><rect id="rect4153" width="36.329" height="22.436" x="31.548" y="16.663" ry="0" style="opacity:1;fill:none;fill-opacity:1;stroke:#fff;stroke-width:3.15335059;stroke-linejoin:round;stroke-miterlimit:4;stroke-dasharray:none;stroke-opacity:1"/></g></g><g id="g4234" transform="matrix(1.0429338,0,0,1.0429338,-2.2245599,-1.4166776)"><path id="path11691" d="m 64.946897,33.004998 0,0 c -3.431213,-0.0051 -7.036058,-0.01463 -9.72282,0 -2.512538,0.01371 -3.008597,3.60745 -3.106358,4.729379 l -0.03987,0 0,0.487335 -0.264104,35.381252 0,0.344837 0,0 0,0.306833 0,0.344835 0.04088,0 c 0.07591,0.855352 0.541052,4.512259 3.166231,4.526558 2.743037,0.01495 6.430039,0.0051 9.926128,0 0.150148,-2.3e-4 0.277089,2.17e-4 0.426511,0 3.496433,0.0051 7.183435,0.01495 9.926129,0 2.95509,-0.0161 2.92304,-4.952142 2.92304,-4.952142 l -0.0209,0 0,-0.203289 c 0.01508,-0.256851 0.0209,-0.449331 0.0209,-0.449331 l -0.01902,0 0.07981,-34.971823 c 0,0 3.39e-4,-0.136879 0,-0.162436 -1.02e-4,-0.0032 0,-0.01689 0,-0.0209 l 0,-0.46833 c 0,0 3.39e-4,-0.136878 0,-0.162439 -0.01072,-0.461473 -0.18385,-4.715049 -2.983834,-4.730319 -2.860841,-0.0156 -6.72279,-0.0051 -10.352641,0 z m -2.599066,4.410182 5.729209,0 1.389784,0.963258 7.886596,0 0,36.72735 -24.205941,0 0,-36.72735 7.840002,0 z m 2.700721,38.176035 c 0.792799,-5e-5 1.435498,0.688572 1.435403,1.537988 9.5e-5,0.849408 -0.642604,1.538033 -1.435403,1.537984 -0.792754,4.9e-5 -1.435453,-0.688576 -1.435357,-1.537984 -9.6e-5,-0.849416 0.642603,-1.538038 1.435357,-1.537988 z" style="fill:#fff;fill-opacity:1;stroke:#000;stroke-width:0;stroke-miterlimit:4;stroke-dasharray:none;stroke-opacity:1"/><rect style="opacity:1;fill:none;fill-opacity:1;stroke:#fff;stroke-width:2.51850796;stroke-linejoin:miter;stroke-miterlimit:4;stroke-dasharray:none;stroke-opacity:1" id="rect4153-0" width="21.942" height="37.917" x="54.189" y="36.018" ry="0"/></g></g></svg>