<svg xmlns="http://www.w3.org/2000/svg" xmlns:svg="http://www.w3.org/2000/svg" id="svg2" width="100" height="100" x="0" y="0" enable-background="new -.5 .722 100 94.445" version="1.1" viewBox="-0.5 0.722 100 100" xml:space="preserve"><metadata id="metadata14"/><circle style="fill:#005a9c;fill-opacity:1;stroke:#fff;stroke-width:3.05662465;stroke-linejoin:round;stroke-miterlimit:4;stroke-dasharray:none;stroke-opacity:1" id="path4142" cx="49.5" cy="50.722" r="48.472"/><g id="g4183" transform="matrix(1.0040932,0,0,1.0040932,-0.2026144,-0.20761555)"><g id="g4181" transform="matrix(1.879547,0,0,1.879547,-91.678748,-39.315254)"><path style="fill:#fff;fill-opacity:1" id="path11691-9" d="m 75.037247,30.700779 0,0 c -2.559666,-0.0038 -5.248861,-0.01091 -7.253171,0 -1.87434,0.01023 -2.244397,2.691138 -2.317326,3.528091 l -0.02974,0 0,0.363549 -0.19702,26.394223 0,0.257246 0,0 0,0.228896 0,0.257245 0.0305,0 c 0.05663,0.638088 0.403622,3.366121 2.361991,3.376788 2.046291,0.01115 4.796774,0.0038 7.404838,0 0.112009,-1.72e-4 0.206707,1.62e-4 0.318175,0 2.60832,0.0038 5.358803,0.01115 7.404838,0 2.204481,-0.01201 2.180572,-3.694271 2.180572,-3.694271 l -0.01559,0 0,-0.151653 c 0.01125,-0.191609 0.01559,-0.335198 0.01559,-0.335198 l -0.01419,0 0.05954,-26.088791 c 0,0 2.53e-4,-0.102111 0,-0.121176 -7.6e-5,-0.0024 0,-0.0126 0,-0.01559 l 0,-0.349372 c 0,0 2.53e-4,-0.10211 0,-0.121178 -0.008,-0.344257 -0.137151,-3.517401 -2.225924,-3.528793 -2.134172,-0.01164 -5.015165,-0.0038 -7.723014,0 z m -1.938889,3.289972 4.273959,0 1.036771,0.718585 5.883358,0 0,27.398404 -18.057501,0 0,-27.398404 5.848599,0 z m 2.014723,28.479115 c 0.591424,-3.7e-5 1.070874,0.513671 1.070803,1.147331 7.1e-5,0.633654 -0.479379,1.147364 -1.070803,1.147328 -0.59139,3.6e-5 -1.07084,-0.513674 -1.070768,-1.147328 -7.2e-5,-0.63366 0.479378,-1.147368 1.070768,-1.147331 z"/><rect id="rect4153-0" width="16.368" height="28.286" x="67.012" y="32.948" ry="0" style="opacity:1;fill:none;fill-opacity:1;stroke:#fff;stroke-width:1.87879336;stroke-linejoin:miter;stroke-miterlimit:4;stroke-dasharray:none;stroke-opacity:1"/></g></g></svg>