<svg xmlns="http://www.w3.org/2000/svg" xmlns:svg="http://www.w3.org/2000/svg" id="svg2" width="155" height="100" x="0" y="0" enable-background="new -.5 .722 100 94.445" version="1.1" viewBox="-0.5 0.722 155 100" xml:space="preserve"><metadata id="metadata14"/><path style="opacity:1;fill:#e8941d;fill-opacity:1;stroke:#fff;stroke-width:3.11404467;stroke-linecap:butt;stroke-linejoin:round;stroke-miterlimit:4;stroke-dasharray:none;stroke-opacity:1" id="rect4137" d="m 8.1933548,2.2790109 c -3.9535945,0 -7.1363325,2.9830835 -7.1363325,6.6886671 l 0,83.508828 c 0,3.705583 3.182738,6.688666 7.1363325,6.688666 l 142.3894152,0 c 0.8166,0 1.59785,-0.134164 2.32742,-0.368773 A 51.741265,48.495508 0 0 1 107.58782,50.721116 51.741265,48.495508 0 0 1 152.9435,2.657541 c -0.73913,-0.2415835 -1.53155,-0.3785301 -2.36073,-0.3785301 l -142.3894152,0 z"/><g style="font-style:normal;font-variant:normal;font-weight:400;font-stretch:normal;font-size:103.99595642px;line-height:100%;font-family:'HP Simplified';-inkscape-font-specification:'HP Simplified, Normal';text-align:center;letter-spacing:0;word-spacing:0;writing-mode:lr-tb;text-anchor:middle;fill:#fff;fill-opacity:1;stroke:none;stroke-width:1px;stroke-linecap:butt;stroke-linejoin:miter;stroke-opacity:1" id="text4139" transform="matrix(0.78807362,0,0,0.78807362,90.787799,9.909789)"><path style="font-style:normal;font-variant:normal;font-weight:400;font-stretch:normal;font-size:103.99595642px;line-height:100%;font-family:'HP Simplified';-inkscape-font-specification:'HP Simplified, Normal';text-align:center;writing-mode:lr-tb;text-anchor:middle;fill:#fff" id="path4156" d="m -46.90109,63.757025 q -3.015883,0 -3.015883,-5.199798 0,-2.391907 0.51998,-4.263834 0.51998,-1.871927 1.559939,-3.639859 1.143956,-1.767931 2.807891,-3.535862 1.767931,-1.871927 4.055842,-4.055842 2.07992,-1.975924 3.431867,-3.431867 1.455943,-1.559939 2.287911,-2.807891 0.831968,-1.351947 1.143956,-2.599899 0.415983,-1.351947 0.415983,-3.119878 0,-5.095802 -2.80789,-7.175721 -2.703895,-2.183915 -8.527669,-2.183915 -3.84785,0 -7.071725,0.623975 -3.223875,0.51998 -4.679818,0.51998 -1.351947,0 -1.767931,-0.623976 -0.415984,-0.623975 -0.415984,-1.767931 l 0,-5.095802 q 3.015883,-1.143955 7.071725,-2.079919 4.159838,-0.935963 9.359636,-0.935963 3.84785,0 7.279717,0.831967 3.535863,0.727972 6.239757,2.703895 2.703895,1.871927 4.263835,5.199798 1.663935,3.32787 1.663935,8.423672 0,3.119879 -0.623976,5.615782 -0.623976,2.495903 -1.871927,4.679818 -1.143956,2.079919 -2.807891,3.951846 -1.663935,1.767932 -3.639858,3.639859 -3.015883,2.703895 -4.783814,4.575822 -1.767932,1.767931 -2.807891,3.431866 -1.03996,1.663936 -1.455944,3.535863 -0.415983,1.871927 -0.519979,4.783814 l -5.303794,0 z m 9.047648,15.703389 q 0,3.639859 -1.663935,5.199798 -1.663935,1.455944 -5.303794,1.455944 -3.743854,0 -5.40779,-1.455944 -1.559939,-1.559939 -1.559939,-5.199798 0,-3.535862 1.663935,-4.991806 1.663936,-1.559939 5.303794,-1.559939 3.639859,0 5.303794,1.559939 1.663935,1.455944 1.663935,4.991806 z"/></g></svg>