<svg xmlns="http://www.w3.org/2000/svg" xmlns:svg="http://www.w3.org/2000/svg" id="svg2" width="100" height="100" x="0" y="0" enable-background="new -.5 .722 100 94.445" version="1.1" viewBox="-0.5 0.722 100 100" xml:space="preserve"><metadata id="metadata14"/><circle style="fill:#005a9c;fill-opacity:1;stroke:#fff;stroke-width:2.91262126;stroke-linejoin:round;stroke-miterlimit:4;stroke-dasharray:none;stroke-opacity:1" id="path4142" cx="49.5" cy="50.722" r="48.544"/><g style="font-style:normal;font-weight:400;font-size:105.49475098px;line-height:125%;font-family:sans-serif;letter-spacing:0;word-spacing:0;fill:#000;fill-opacity:1;stroke:none;stroke-width:1px;stroke-linecap:butt;stroke-linejoin:miter;stroke-opacity:1" id="text4152" transform="matrix(0.7749834,0,0,0.69479126,12.242093,8.034985)"><path style="fill:#fff" id="path4157" d="m 36.233339,25.779295 0,28.897732 13.083822,0 q 7.263066,0 11.229422,-3.760311 3.966355,-3.760311 3.966355,-10.71431 0,-6.902489 -3.966355,-10.6628 -3.966356,-3.760311 -11.229422,-3.760311 l -13.083822,0 z m -10.405244,-8.550844 23.489066,0 q 12.929288,0 19.52271,5.872267 6.644933,5.820755 6.644933,17.101688 0,11.383955 -6.644933,17.20471 -6.593422,5.820755 -19.52271,5.820755 l -13.083822,0 0,30.906666 -10.405244,0 0,-76.906086 z"/></g></svg>