<svg xmlns="http://www.w3.org/2000/svg" id="Layer_1" data-name="Layer 1" viewBox="0 0 57.97 59"><defs><style>.cls-1,.cls-2{fill:none;stroke:#388e3c;stroke-linecap:round;stroke-miterlimit:10;stroke-width:1px}.cls-2{fill:#c8e6c9}</style></defs><title>media-transmission-icon</title><path d="M30.21,60.6a28,28,0,0,1,0-39.6" class="cls-1" transform="translate(-21.03 -20)"/><path d="M69.81,21a28,28,0,0,1,0,39.6" class="cls-1" transform="translate(-21.03 -20)"/><path d="M34.46,56.36a22,22,0,0,1,0-31.11" class="cls-1" transform="translate(-21.03 -20)"/><path d="M65.57,25.24a22,22,0,0,1,0,31.11" class="cls-1" transform="translate(-21.03 -20)"/><path d="M38.7,52.11a16,16,0,0,1,0-22.63" class="cls-1" transform="translate(-21.03 -20)"/><path d="M61.33,29.49a16,16,0,0,1,0,22.63" class="cls-1" transform="translate(-21.03 -20)"/><circle cx="28.99" cy="21" r="6" class="cls-2"/><line x1="28.99" x2="28.99" y1="27" y2="58" class="cls-1"/></svg>