<svg xmlns="http://www.w3.org/2000/svg" id="Layer_1" data-name="Layer 1" viewBox="0 0 58 54"><defs><style>.cls-1,.cls-2,.cls-4{fill:none}.cls-1,.cls-2,.cls-3,.cls-4{stroke:#512da8;stroke-width:1px}.cls-1,.cls-3,.cls-4{stroke-linecap:round}.cls-1,.cls-2{stroke-miterlimit:10}.cls-3{fill:#d1c4e9}.cls-3,.cls-4{stroke-linejoin:round}</style></defs><title>synchronized-content-icon</title><path d="M73.17,61a12.21,12.21,0,0,0-11.75-9,12.81,12.81,0,0,0-12.25,9" class="cls-1" transform="translate(-21.17 -24)"/><path d="M49.17,67A12.5,12.5,0,0,0,61.42,77c6,0,10.59-4.29,11.75-10" class="cls-1" transform="translate(-21.17 -24)"/><polyline points="53 30 53 37 46 37" class="cls-2"/><polyline points="27 50 27 43 34 43" class="cls-2"/><polygon points="25 30 25 22.95 25 16 36 23 25 30" class="cls-3"/><rect width="10" height="11" x="1" y="1" class="cls-4"/><rect width="10" height="11" x="1" y="12" class="cls-4"/><rect width="10" height="11" x="1" y="23" class="cls-4"/><rect width="10" height="11" x="1" y="34" class="cls-4"/><rect width="10" height="11" x="47" y="1" class="cls-4"/><rect width="10" height="11" x="47" y="12" class="cls-4"/><polyline points="57 32 57 1 1 1 1 45 22 45" class="cls-4"/></svg>