<svg xmlns="http://www.w3.org/2000/svg" id="Layer_1" data-name="Layer 1" viewBox="0 0 60 53"><defs><style>.cls-1{fill:#fff}.cls-1,.cls-3,.cls-4,.cls-5,.cls-6{stroke:#c2185b;stroke-miterlimit:10;stroke-width:1px}.cls-2{fill:#f8bbd0}.cls-3,.cls-5{fill:none}.cls-4,.cls-6{fill:#f8bbd0}.cls-5,.cls-6{stroke-linecap:round}</style></defs><title>media-processing-icon</title><rect width="58" height="48" x="1" y="4" class="cls-1"/><circle cx="28" cy="22" r="1" class="cls-2"/><circle cx="28" cy="25" r="1" class="cls-2"/><circle cx="28" cy="28" r="1" class="cls-2"/><circle cx="28" cy="13" r="1" class="cls-2"/><circle cx="25" cy="15" r="1" class="cls-2"/><circle cx="25" cy="19" r="1" class="cls-2"/><circle cx="56" cy="15" r="1" class="cls-2"/><circle cx="56" cy="22" r="1" class="cls-2"/><circle cx="19" cy="36" r="1" class="cls-2"/><circle cx="16" cy="36" r="1" class="cls-2"/><circle cx="13" cy="36" r="1" class="cls-2"/><circle cx="4" cy="24" r="1" class="cls-2"/><circle cx="4" cy="27" r="1" class="cls-2"/><circle cx="4" cy="30" r="1" class="cls-2"/><circle cx="28" cy="16" r="1" class="cls-2"/><circle cx="28" cy="19" r="1" class="cls-2"/><rect width="20" height="20" x="33" y="8" class="cls-1" rx="1.71" ry="1.71"/><rect width="4" height="3" x="33" y="1" class="cls-1"/><rect width="4" height="3" x="37" y="1" class="cls-1"/><rect width="4" height="3" x="41" y="1" class="cls-1"/><rect width="4" height="3" x="45" y="1" class="cls-1"/><rect width="4" height="3" x="49" y="1" class="cls-1"/><rect width="26" height="4" x="27" y="44" class="cls-3"/><rect width="26" height="4" x="27" y="40" class="cls-3"/><rect width="26" height="4" x="27" y="36" class="cls-3"/><rect width="26" height="4" x="27" y="32" class="cls-3"/><rect width="23" height="4" x="27.5" y="36.5" class="cls-4" transform="translate(57.5 -23.5) rotate(90)"/><rect width="17" height="4" x="22.5" y="33.5" class="cls-4" transform="translate(46.5 -18.5) rotate(90)"/><line x1="27" x2="25" y1="34" y2="34" class="cls-5"/><line x1="27" x2="25" y1="38" y2="38" class="cls-5"/><line x1="55" x2="53" y1="34" y2="34" class="cls-5"/><line x1="55" x2="53" y1="38" y2="38" class="cls-5"/><line x1="27" x2="25" y1="42" y2="42" class="cls-5"/><line x1="27" x2="25" y1="46" y2="46" class="cls-5"/><line x1="55" x2="53" y1="42" y2="42" class="cls-5"/><line x1="55" x2="53" y1="46" y2="46" class="cls-5"/><line x1="30" x2="30" y1="32" y2="48" class="cls-5"/><line x1="50" x2="50" y1="32" y2="48" class="cls-5"/><rect width="6" height="7" x="13" y="40" class="cls-6"/><line x1="19" x2="21" y1="42" y2="42" class="cls-5"/><line x1="19" x2="21" y1="45" y2="45" class="cls-5"/><line x1="11" x2="13" y1="42" y2="42" class="cls-5"/><line x1="11" x2="13" y1="45" y2="45" class="cls-5"/><line x1="1" x2="4" y1="37" y2="37" class="cls-5"/><line x1="1" x2="4" y1="40" y2="40" class="cls-5"/><line x1="1" x2="4" y1="43" y2="43" class="cls-5"/><line x1="1" x2="4" y1="46" y2="46" class="cls-5"/><line x1="1" x2="4" y1="49" y2="49" class="cls-5"/><line x1="30" x2="30" y1="4" y2="2" class="cls-5"/><line x1="27" x2="27" y1="4" y2="2" class="cls-5"/><line x1="56" x2="56" y1="4" y2="2" class="cls-5"/><line x1="11" x2="11" y1="21" y2="23" class="cls-5"/><line x1="19" x2="19" y1="27" y2="29" class="cls-5"/><line x1="1" x2="4" y1="9" y2="9" class="cls-5"/><line x1="1" x2="4" y1="12" y2="12" class="cls-5"/><line x1="1" x2="4" y1="15" y2="15" class="cls-5"/><rect width="5" height="5" x="8" y="27" class="cls-6"/><rect width="10" height="10" x="38" y="13" class="cls-4"/><line x1="40" x2="40" y1="13" y2="10" class="cls-3"/><line x1="43" x2="43" y1="13" y2="10" class="cls-3"/><line x1="46" x2="46" y1="13" y2="10" class="cls-3"/><line x1="40" x2="40" y1="26" y2="23" class="cls-3"/><line x1="43" x2="43" y1="26" y2="23" class="cls-3"/><line x1="46" x2="46" y1="26" y2="23" class="cls-3"/><line x1="48" x2="51" y1="15" y2="15" class="cls-3"/><line x1="48" x2="51" y1="18" y2="18" class="cls-3"/><line x1="48" x2="51" y1="21" y2="21" class="cls-3"/><line x1="35" x2="38" y1="15" y2="15" class="cls-3"/><line x1="35" x2="38" y1="18" y2="18" class="cls-3"/><line x1="35" x2="38" y1="21" y2="21" class="cls-3"/></svg>