<svg xmlns="http://www.w3.org/2000/svg" id="Layer_1" data-name="Layer 1" viewBox="0 0 60 57"><defs><style>.cls-1{fill:#fff}.cls-1,.cls-2,.cls-3{stroke:#0097a7;stroke-linecap:round;stroke-miterlimit:10;stroke-width:1px}.cls-2{fill:#b2ebf2}.cls-3{fill:none}</style></defs><title>media-rendering-icon</title><path d="M60.77,74H39.23a0.24,0.24,0,0,1-.12-0.44l1.8-1.27A6,6,0,0,0,43.21,66H56.79a6,6,0,0,0,2.3,6.29l1.8,1.27A0.24,0.24,0,0,1,60.77,74Z" class="cls-1" transform="translate(-20 -21)"/><rect width="58" height="44" x="1" y="1" class="cls-1" rx="3.5" ry="3.5"/><path d="M4.5,1h51A3.5,3.5,0,0,1,59,4.5V36a0,0,0,0,1,0,0H1a0,0,0,0,1,0,0V4.5A3.5,3.5,0,0,1,4.5,1Z" class="cls-2"/><line x1="5" x2="9" y1="9" y2="5" class="cls-3"/><line x1="5" x2="7" y1="14" y2="12" class="cls-3"/><line x1="9" x2="9" y1="10" y2="10" class="cls-3"/><line x1="11" x2="14" y1="8" y2="5" class="cls-3"/><line x1="5" x2="14" y1="19" y2="10" class="cls-3"/><line x1="16" x2="16" y1="8" y2="8" class="cls-3"/><line x1="18" x2="19" y1="6" y2="5" class="cls-3"/><rect width="26" height="3" x="17" y="53" class="cls-1" rx="1.5" ry="1.5"/></svg>