<svg xmlns="http://www.w3.org/2000/svg" xmlns:xlink="http://www.w3.org/1999/xlink" id="layout_1_" width="150" height="150" x="0" style="enable-background:new 0 0 150 150" y="0" version="1.1" viewBox="0 0 150 150" xml:space="preserve"><path style="fill:#fc4f08" d="M0,0v150h150V0H0z M143.75,143.75H6.25V31.25h137.5V143.75z M143.75,25H6.25V6.25h137.5V25z"/><rect style="fill:#fc4f08" width="6.25" height="6.25" x="131.25" y="12.5"/><rect style="fill:#fc4f08" width="6.25" height="6.25" x="118.75" y="12.5"/><rect style="fill:#fc4f08" width="6.25" height="6.25" x="106.25" y="12.5"/><path style="fill:#fc4f08" d="M12.5,37.5v28.125h125V37.5L12.5,37.5z M131.25,59.375H18.75V43.75h112.5L131.25,59.375	L131.25,59.375z"/><path style="fill:#fc4f08" d="M12.5,71.875V137.5H50V71.875H12.5z M43.75,131.25h-25V78.125h25V131.25z"/><path style="fill:#fc4f08" d="M56.25,71.875V137.5h37.5V71.875H56.25z M87.5,131.25h-25V78.125h25V131.25z"/><path style="fill:#fc4f08" d="M100,71.875V137.5h37.5V71.875H100z M131.25,131.25h-25V78.125h25L131.25,131.25L131.25,131.25z"/><rect style="opacity:.3;fill:#fc4f08" width="112.5" height="15.625" x="18.75" y="43.75"/><rect style="opacity:.3;fill:#fc4f08" width="25" height="53.125" x="18.75" y="78.125"/><rect style="opacity:.3;fill:#fc4f08" width="25" height="53.125" x="62.5" y="78.125"/><rect style="opacity:.3;fill:#fc4f08" width="25" height="53.125" x="106.25" y="78.125"/></svg>