<svg xmlns="http://www.w3.org/2000/svg" xmlns:xlink="http://www.w3.org/1999/xlink" id="图层_1" width="150" height="150" x="0" style="enable-background:new 0 0 150 150" y="0" version="1.1" viewBox="0 0 150 150" xml:space="preserve"><g id="network"><g><g><g><path style="fill:#f4c51c" d="M50.01,48.922h22.388v3.068H56.205c-1.413,0-2.557,1.145-2.557,2.557 c0,1.413,1.144,2.557,2.557,2.557h37.499c1.411,0,2.557-1.143,2.557-2.557c0-1.411-1.145-2.557-2.557-2.557H77.512v-3.068H99.9 c4.196,0,7.61-3.414,7.61-7.61V9.147c0-4.196-3.414-7.61-7.61-7.61H50.01c-4.198,0-7.612,3.414-7.612,7.61v32.164 C42.398,45.508,45.814,48.922,50.01,48.922L50.01,48.922z M99.9,43.809H50.01c-1.378,0-2.498-1.12-2.498-2.497v-1.773h54.885 v1.773C102.397,42.688,101.276,43.809,99.9,43.809L99.9,43.809z M50.01,6.651H99.9c1.376,0,2.497,1.12,2.497,2.497v25.278 H47.512V9.147C47.512,7.771,48.632,6.651,50.01,6.651L50.01,6.651z"/></g><path style="fill:#f4c51c" d="M19.305,88.497c1.413,0,2.557-1.145,2.557-2.557v-6.713h50.536v6.713 c0,1.412,1.144,2.557,2.557,2.557c1.411,0,2.557-1.145,2.557-2.557v-6.713h50.534v6.713c0,1.412,1.145,2.557,2.557,2.557 c1.413,0,2.557-1.145,2.557-2.557v-9.27c0-1.411-1.144-2.557-2.557-2.557H77.512v-11.76c0-1.413-1.145-2.557-2.557-2.557 c-1.413,0-2.557,1.143-2.557,2.557v11.76H19.305c-1.411,0-2.557,1.145-2.557,2.557v9.27 C16.749,87.352,17.894,88.497,19.305,88.497L19.305,88.497z"/><path style="fill:#f4c51c" d="M30.946,93.14H7.665c-4.202,0-7.62,3.419-7.62,7.62v41.007c0,4.203,3.419,7.622,7.62,7.622h23.281 c4.201,0,7.62-3.419,7.62-7.622V100.76C38.566,96.558,35.149,93.14,30.946,93.14L30.946,93.14z M7.665,98.253h23.281 c1.383,0,2.506,1.125,2.506,2.506v35.334H5.158V100.76C5.158,99.378,6.284,98.253,7.665,98.253L7.665,98.253z M30.946,144.275 H7.665c-1.381,0-2.507-1.125-2.507-2.509v-0.559h28.294v0.559C33.452,143.149,32.329,144.275,30.946,144.275L30.946,144.275z"/><path style="fill:#f4c51c" d="M86.595,93.14h-23.28c-4.203,0-7.62,3.419-7.62,7.62v41.007c0,4.203,3.417,7.622,7.62,7.622h23.28 c4.202,0,7.62-3.419,7.62-7.622V100.76C94.216,96.558,90.797,93.14,86.595,93.14L86.595,93.14z M63.315,98.253h23.28 c1.382,0,2.507,1.125,2.507,2.506v35.334H60.808V100.76C60.808,99.378,61.931,98.253,63.315,98.253L63.315,98.253z M86.595,144.275h-23.28c-1.384,0-2.507-1.125-2.507-2.509v-0.559h28.294v0.559C89.102,143.149,87.977,144.275,86.595,144.275 L86.595,144.275z"/><path style="fill:#f4c51c" d="M142.243,93.14h-23.279c-4.203,0-7.622,3.419-7.622,7.62v41.007c0,4.203,3.419,7.622,7.622,7.622 h23.279c4.203,0,7.622-3.419,7.622-7.622V100.76C149.865,96.558,146.446,93.14,142.243,93.14L142.243,93.14z M118.964,98.253 h23.279c1.383,0,2.509,1.125,2.509,2.506v35.334h-28.296V100.76C116.456,99.378,117.581,98.253,118.964,98.253L118.964,98.253z M142.243,144.275h-23.279c-1.383,0-2.508-1.125-2.508-2.509v-0.559h28.296v0.559 C144.752,143.149,143.626,144.275,142.243,144.275L142.243,144.275z"/></g><rect style="opacity:.3;fill:#f4c51c;enable-background:new" width="57.655" height="30.017" x="46.08" y="5.56"/><rect style="opacity:.3;fill:#f4c51c;enable-background:new" width="32.534" height="41.731" x="58.572" y="96.389"/><rect style="opacity:.3;fill:#f4c51c;enable-background:new" width="32.534" height="41.731" x="3.039" y="96.389"/><rect style="opacity:.3;fill:#f4c51c;enable-background:new" width="32.534" height="41.731" x="114.337" y="96.389"/></g></g></svg>